<svg viewBox="0.47 0.00 132.05 48.00" fill="none" xmlns="http://www.w3.org/2000/svg"><defs><filter id="tbl-white-hayatfinans" x="0.47" y="0.00" width="132.05" height="48.00" filterUnits="userSpaceOnUse" color-interpolation-filters="sRGB"><feFlood flood-color="#000" result="siyah"/><feComposite in="SourceGraphic" in2="siyah" operator="over" result="zemin"/><feColorMatrix in="zemin" type="matrix" values="0 0 0 0 1  0 0 0 0 1  0 0 0 0 1  -20 -20 -20 60 0" result="dolu"/><feColorMatrix in="zemin" type="matrix" values="0 0 0 0 1  0 0 0 0 1  0 0 0 0 1  5 -10 5 0 -8" result="eflatun"/><feComposite in="eflatun" in2="dolu" operator="arithmetic" k1="0" k2="-0.6" k3="1" k4="0" result="m"/><feComposite in="m" in2="SourceAlpha" operator="in"/></filter></defs><g filter="url(#tbl-white-hayatfinans)">
    <path d="M4.182 11.178c-5.87 9.286-4.77 21.705 3.303 29.778a24.032 24.032 0 0 0 9.738 5.927v-10.67c-.509-.281-1.017-.592-1.525-.874C7.513 30.23 2.46 21.48 4.182 11.178zM22.67 16.85c7.226 6.04 17.952 5.08 23.992-2.06a22.573 22.573 0 0 0-3.838-6.267c-1.355 1.13-2.964 1.976-4.686 2.371C32.069 12.335 26 8.581 24.56 2.512A10.547 10.547 0 0 1 24.28 0c-2.569 0-5.109.452-7.565 1.298-.846 5.843 1.44 11.742 5.984 15.581l-.028-.028zm6.69-11.996c2.71 3.387 7.677 3.923 11.064 1.242C36.727 2.794 32.267.819 27.638.226v.14c0 .453.085.904.197 1.384a8.748 8.748 0 0 0 1.525 3.133v-.028zM47.848 18.43a20.07 20.07 0 0 1-9.597 5.222c-11.008 2.569-22.045-4.318-24.585-15.326a20.432 20.432 0 0 1-.508-5.56 25.359 25.359 0 0 0-5.137 3.781c-3.077 9.682.705 20.238 9.23 25.742v-8.326h3.387v10.105a22.564 22.564 0 0 0 7.197 1.721v-7.677h3.388v7.65a22.52 22.52 0 0 0 17.217-10.36 24.136 24.136 0 0 0-.592-6.971zM31.223 39.178v7.846a24.223 24.223 0 0 0 10.246-6.068 24.22 24.22 0 0 0 5.786-9.315c-3.952 4.404-10.049 7.142-16.032 7.537zm-10.585-1.44v9.964c2.37.367 4.798.395 7.197.084v-8.552a34.76 34.76 0 0 1-3.443-.423 33.535 33.535 0 0 1-3.754-1.045v-.028z" fill="url(#k7zwt6yh9a)"/>
    <path d="M63.682 15.609h6.605v6.21h3.839V6.097h-3.839v6.125h-6.605V6.097h-3.867v15.722h3.867v-6.21zm17.698 6.548c1.496 0 2.71-.423 3.67-1.298v.931h3.754V10.02h-3.755v.932c-.96-.847-2.173-1.299-3.669-1.299a5.581 5.581 0 0 0-4.064 1.75c-1.13 1.186-1.666 2.682-1.666 4.488 0 1.807.565 3.33 1.665 4.488 1.13 1.157 2.484 1.75 4.065 1.75v.028zm-1.242-8.41c.536-.566 1.214-.848 2.032-.848.819 0 1.468.283 2.033.875.564.593.846 1.299.846 2.174s-.282 1.637-.846 2.201a2.772 2.772 0 0 1-2.033.847c-.79 0-1.496-.282-2.032-.847-.536-.564-.79-1.298-.79-2.201 0-.904.254-1.637.79-2.202zm16.766 12.052 6.803-15.807h-4.036l-2.993 6.887-2.794-6.887h-4.036l4.883 11.403-1.891 4.375h4.064v.029zm8.355-5.392c1.129 1.158 2.484 1.75 4.065 1.75 1.58 0 2.709-.423 3.669-1.298v.931h3.754V10.02h-3.754v.932c-.96-.847-2.173-1.299-3.669-1.299a5.583 5.583 0 0 0-4.065 1.75c-1.129 1.186-1.665 2.682-1.665 4.488 0 1.807.564 3.33 1.665 4.488v.028zm2.795-6.66c.536-.566 1.213-.848 2.032-.848.818 0 1.468.283 2.032.875.565.593.847 1.299.847 2.174s-.282 1.637-.847 2.201a2.77 2.77 0 0 1-2.032.847c-.79 0-1.496-.282-2.032-.847-.537-.564-.791-1.298-.791-2.201 0-.904.254-1.637.791-2.202zm19.673 7.564-.875-2.964c-.536.31-1.129.48-1.722.48-1.044 0-1.58-.565-1.58-1.722v-4.093h3.471V10.02h-3.471V6.07h-3.754v3.951h-2.146v2.992h2.146v4.46c0 1.524.423 2.71 1.242 3.5.818.79 1.975 1.185 3.471 1.185s2.145-.282 3.218-.875v.029zM59.815 41.52h3.867v-5.646h7.367v-3.387h-7.367v-3.302h8.299V25.77H59.815v15.75zm15.892-17.388c-.621 0-1.13.198-1.553.621-.395.424-.62.932-.62 1.524 0 .593.197 1.101.62 1.496.395.395.932.593 1.553.593.62 0 1.157-.198 1.552-.593.424-.395.621-.903.621-1.496 0-.592-.197-1.072-.62-1.496-.424-.423-.932-.62-1.553-.62v-.029zM73.844 41.52h3.754V29.75h-3.754v11.77zM87.11 29.383c-1.468 0-2.681.48-3.613 1.468v-1.129h-3.754v11.77h3.754v-5.476c0-1.1.226-1.947.65-2.483.423-.537 1.015-.82 1.806-.82.79 0 1.072.227 1.467.65.367.423.565.988.565 1.665v6.436h3.726v-7.226c0-1.468-.424-2.653-1.242-3.556-.847-.904-1.948-1.355-3.33-1.355l-.03.056zm15.298 1.299c-.959-.847-2.173-1.299-3.669-1.299a5.581 5.581 0 0 0-4.065 1.75c-1.129 1.186-1.665 2.682-1.665 4.488 0 1.807.565 3.33 1.665 4.488 1.13 1.157 2.484 1.75 4.065 1.75 1.581 0 2.71-.423 3.669-1.298v.931h3.754v-11.77h-3.754V30.682zm-.846 7.14a2.773 2.773 0 0 1-2.033.848c-.79 0-1.496-.283-2.032-.847-.536-.565-.79-1.299-.79-2.202s.254-1.637.79-2.201c.536-.565 1.214-.847 2.032-.847.819 0 1.468.282 2.033.875.564.593.846 1.298.846 2.173s-.282 1.637-.846 2.202zm14.225-8.439c-1.467 0-2.681.48-3.612 1.468v-1.129h-3.754v11.77h3.754v-5.476c0-1.1.225-1.947.649-2.483.423-.537 1.016-.82 1.806-.82.791 0 1.073.227 1.468.65.367.423.564.988.564 1.665v6.436h3.726v-7.226c0-1.468-.423-2.653-1.242-3.556-.818-.904-1.947-1.355-3.33-1.355l-.029.056zm15.948 6.266c-.536-.62-1.355-1.044-2.427-1.27l-2.766-.564c-.593-.113-.904-.395-.904-.819 0-.423.113-.452.311-.649.197-.17.564-.282 1.016-.282.452 0 .988.14 1.355.395.339.254.564.593.621.988l3.415-.678c-.226-1.044-.818-1.863-1.778-2.455-.96-.621-2.145-.904-3.585-.904-1.439 0-2.709.367-3.669 1.101-.932.734-1.411 1.694-1.411 2.908 0 1.862 1.129 2.991 3.415 3.415l2.399.48c.79.14 1.186.423 1.186.875 0 .451-.142.48-.424.677-.282.17-.649.282-1.101.282-1.242 0-1.919-.451-2.088-1.383l-3.67.763c.198 1.128.791 2.003 1.807 2.568 1.016.564 2.258.847 3.754.847s2.879-.339 3.867-1.045c.988-.677 1.467-1.665 1.467-2.935s-.282-1.637-.818-2.258l.028-.057z" fill="#283E80"/>
    <defs>
        <linearGradient id="k7zwt6yh9a" x1="12.48" y1="44.795" x2="36.473" y2="3.218" gradientUnits="userSpaceOnUse">
            <stop offset=".4" stop-color="#283E80"/>
            <stop offset=".7" stop-color="#01A05F"/>
        </linearGradient>
    </defs>
</g></svg>
