<svg viewBox="0 0 129 24" fill="none" xmlns="http://www.w3.org/2000/svg"><defs><filter id="tbl-white-odeabank" x="0" y="0" width="129" height="24" filterUnits="userSpaceOnUse" color-interpolation-filters="sRGB"><feFlood flood-color="#000" result="siyah"/><feComposite in="SourceGraphic" in2="siyah" operator="over" result="zemin"/><feColorMatrix in="zemin" type="matrix" values="0 0 0 0 1  0 0 0 0 1  0 0 0 0 1  -20 -20 -20 60 0" result="dolu"/><feColorMatrix in="zemin" type="matrix" values="0 0 0 0 1  0 0 0 0 1  0 0 0 0 1  5 -10 5 0 -8" result="eflatun"/><feComposite in="eflatun" in2="dolu" operator="arithmetic" k1="0" k2="-0.6" k3="1" k4="0" result="m"/><feComposite in="m" in2="SourceAlpha" operator="in"/></filter></defs><g filter="url(#tbl-white-odeabank)">
<path fill-rule="evenodd" clip-rule="evenodd" d="M122.494 15.0971L128.359 7.7761L123.173 7.76131L118.297 14.4461L118.335 0.256958L114.072 0.24411L114.007 23.7597L118.271 23.771L118.292 15.8532L123.398 23.7858L128.727 23.8021L122.494 15.0971ZM107.665 23.7425L111.943 23.7531L111.974 12.524C111.982 9.72976 110.744 7.41169 107.016 7.40153C104.323 7.39339 102.385 8.70037 101.379 10.598L101.347 10.5622L101.354 7.69901L97.575 7.69084L97.5505 23.7133L101.821 23.7235L101.842 16.0027C101.849 13.2061 103.507 10.8312 105.668 10.8362C107.233 10.8409 107.699 11.8376 107.694 13.5074L107.665 23.7425ZM91.7231 23.6954L95.4928 23.7063C95.4928 23.382 95.4846 20.5551 95.4846 20.5551L95.5076 12.9242C95.5158 9.42414 94.0352 7.36575 88.7094 7.35011C86.5831 7.34433 84.4443 7.74807 82.7713 8.32272L83.1337 11.7679C84.5371 10.9994 86.5305 10.5209 88.0305 10.5259C90.4284 10.5306 91.2589 11.4058 91.2538 13.0788L91.2515 13.9431C85.6299 13.9275 81.6891 15.945 81.6785 19.7718C81.6711 22.3425 83.3956 23.9925 86.3906 23.9999C88.8555 24.0092 90.8941 22.7622 91.6993 20.9573H91.7297L91.7231 23.6954ZM91.2441 17.004C91.2383 18.9331 89.8021 20.8553 87.707 20.8506C86.4744 20.8455 85.7417 20.1701 85.744 19.1399C85.7464 17.8551 86.7538 16.5999 91.2441 16.6135V17.004ZM80.9974 14.846C81.0137 10.1203 78.8874 7.3237 74.9267 7.30968C72.7891 7.30462 71.0752 8.21604 70.1566 9.69862L70.1628 7.03404L70.1769 2.12691L70.1819 0.119135L65.9091 0.107066L65.8444 23.1702C67.7377 23.6873 69.6172 23.9543 72.0124 23.9614C77.7093 23.9781 80.9848 20.2495 80.9974 14.846ZM76.4997 15.2571C76.4899 19.2104 74.7541 20.6906 72.3265 20.6813C71.4298 20.6797 70.7314 20.5781 70.125 20.385L70.1383 15.8812C70.1457 13.2108 71.484 10.7409 73.6804 10.7459C75.6169 10.7541 76.5078 12.2643 76.4997 15.2571ZM59.5603 23.6051L63.3257 23.6149C63.3257 23.2917 63.323 20.4648 63.323 20.4648L63.3456 12.8343C63.3541 9.33381 61.865 7.27347 56.5415 7.25902C54.4125 7.25401 52.2792 7.65774 50.6116 8.23162L50.969 11.6768C52.3677 10.9102 54.3716 10.4306 55.8623 10.4333C58.2578 10.4415 59.0891 11.3147 59.0844 12.9892L59.0817 13.8536C53.4604 13.8372 49.5232 15.8547 49.5134 19.6807C49.5056 22.2522 51.2356 23.9026 54.2208 23.9108C56.6939 23.9181 58.7239 22.6711 59.5291 20.8662H59.5677L59.5603 23.6051ZM59.0731 16.9106C59.068 18.8428 57.6312 20.7642 55.531 20.7603C54.3018 20.7537 53.5766 20.0766 53.5793 19.0496C53.5816 17.7617 54.5836 16.5096 59.0731 16.5232V16.9106ZM48.232 16.2405C48.3333 15.5627 48.3719 14.9164 48.3743 14.3725C48.384 10.4126 46.2644 7.23104 41.4377 7.21775C36.4735 7.20301 33.6695 10.7926 33.6535 15.6822C33.6384 21.3053 36.562 23.8613 41.8181 23.8762C43.8871 23.8819 45.9849 23.5272 47.7422 22.8631L47.3571 19.6733C45.9272 20.3145 44.1615 20.6633 42.5328 20.659C39.4666 20.6501 37.9396 19.1998 37.9856 16.2117L48.232 16.2405ZM44.1463 13.4284L38.0554 13.4136C38.2888 11.4829 39.5285 10.2289 41.2951 10.2335C43.087 10.2386 44.2187 11.4319 44.1463 13.4284ZM28.4415 23.5199L32.2428 23.5308L32.3071 0.0140159L28.0319 0L28.0121 7.30462C27.2895 7.20495 26.6262 7.1742 25.9197 7.1742C20.4329 7.15862 17.16 10.8756 17.144 16.2822C17.1316 20.8471 19.1094 23.8122 23.1465 23.822C25.6741 23.8301 27.5097 22.5808 28.3796 20.8109L28.4497 20.8144L28.4415 23.5199ZM27.991 15.1851C27.9836 17.9135 26.6445 20.4204 24.4177 20.4153C22.4894 20.4072 21.5899 18.8638 21.5981 15.8703C21.6082 11.9174 23.3483 10.4438 25.7774 10.4504C26.5152 10.4504 27.2459 10.5489 28.0039 10.7202L27.991 15.1851ZM16.2069 15.1668C16.2228 9.66241 13.1978 7.1376 8.49317 7.12432C3.46234 7.10957 0.0160918 10.7046 5.6505e-05 15.6998C-0.0150855 21.4038 3.01417 23.7663 7.71374 23.7784C12.6834 23.7939 16.1916 20.1907 16.2069 15.1668ZM11.8132 15.3762C11.803 18.6326 10.1892 20.2732 8.09488 20.2678C5.6237 20.2596 4.38597 18.5831 4.39727 15.2933C4.40467 12.0066 6.28193 10.5933 8.18725 10.598C10.6888 10.6061 11.8209 12.2857 11.8132 15.3762Z" fill="#2D353C"/>
</g></svg>
